<mxfile host="Electron" modified="2024-05-15T22:14:43.264Z" agent="Mozilla/5.0 (X11; Linux x86_64) AppleWebKit/537.36 (KHTML, like Gecko) draw.io/24.2.5 Chrome/120.0.6099.109 Electron/28.1.0 Safari/537.36" etag="FCq604nfyGUuXnBDBRzp" version="24.2.5" type="device">
  <diagram name="Page-1" id="3yHXsXy3GaDdZvMfvjRr">
    <mxGraphModel dx="1674" dy="843" grid="1" gridSize="10" guides="1" tooltips="1" connect="1" arrows="1" fold="1" page="1" pageScale="1" pageWidth="1169" pageHeight="827" math="0" shadow="0">
      <root>
        <mxCell id="0" />
        <mxCell id="1" parent="0" />
        <mxCell id="d12QLknMRzZI76rEDlil-12" value="c" style="whiteSpace=wrap;html=1;aspect=fixed;fillColor=#000000;" vertex="1" parent="1">
          <mxGeometry x="525" y="354" width="120" height="120" as="geometry" />
        </mxCell>
        <mxCell id="d12QLknMRzZI76rEDlil-13" value="" style="pointerEvents=1;verticalLabelPosition=bottom;shadow=0;dashed=0;align=center;html=1;verticalAlign=top;shape=mxgraph.electrical.inductors.inductor_5;strokeWidth=2.5;strokeColor=white" vertex="1" parent="1">
          <mxGeometry x="535" y="407" width="100" height="14" as="geometry" />
        </mxCell>
      </root>
    </mxGraphModel>
  </diagram>
</mxfile>
